<?xml version="1.0" encoding="UTF-8"?>
<!DOCTYPE svg PUBLIC "-//W3C//DTD SVG 1.1//EN" "http://www.w3.org/Graphics/SVG/1.1/DTD/svg11.dtd">
<!-- Creator: CorelDRAW 2020 (64-Bit) -->
<svg xmlns="http://www.w3.org/2000/svg" xml:space="preserve" width="210mm" height="148mm" version="1.1" style="shape-rendering:geometricPrecision; text-rendering:geometricPrecision; image-rendering:optimizeQuality; fill-rule:evenodd; clip-rule:evenodd"
viewBox="0 0 21000 14800"
 xmlns:xlink="http://www.w3.org/1999/xlink"
 xmlns:xodm="http://www.corel.com/coreldraw/odm/2003">
 <defs>
  <style type="text/css">
   <![CDATA[
    .fil0 {fill:#FEFEFE;fill-rule:nonzero;fill-opacity:0.501961}
    .fil1 {fill:#89CFE4;fill-rule:nonzero;fill-opacity:0.501961}
   ]]>
  </style>
 </defs>
 <g id="Слой_x0020_1">
  <metadata id="CorelCorpID_0Corel-Layer"/>
  <g id="_1836263717184">
   <polygon class="fil0" points="6914.99,3874.6 7872.46,3874.6 7951.14,3874.6 7970.53,3555.31 7970.52,3555.31 7979.24,3411.76 7912.6,3232.36 7001.67,3236.01 "/>
   <polygon class="fil1" points="6914.99,3874.6 7951.14,3874.6 7979.18,3411.32 7912.6,3232.36 7001.67,3236.01 "/>
   <polygon class="fil1" points="6914.99,3874.6 7951.14,3874.6 7951.14,3555.31 6958.34,3555.31 "/>
   <polygon class="fil0" points="6965.19,3504.79 7973.59,3504.79 7979.18,3411.32 7949.1,3331.76 7912.6,3232.36 7001.18,3240.33 "/>
   <polygon class="fil1" points="7872.46,3874.6 7951.14,3874.6 7979.21,3412.3 7913.31,3236.01 7788.77,3236.01 "/>
   <polygon class="fil1" points="7872.46,3874.6 7951.14,3874.6 7970.53,3555.31 7774.88,3555.31 "/>
  </g>
 </g>
</svg>
