<?xml version="1.0" encoding="UTF-8"?>
<!DOCTYPE svg PUBLIC "-//W3C//DTD SVG 1.1//EN" "http://www.w3.org/Graphics/SVG/1.1/DTD/svg11.dtd">
<!-- Creator: CorelDRAW 2020 (64-Bit) -->
<svg xmlns="http://www.w3.org/2000/svg" xml:space="preserve" width="210mm" height="148mm" version="1.1" style="shape-rendering:geometricPrecision; text-rendering:geometricPrecision; image-rendering:optimizeQuality; fill-rule:evenodd; clip-rule:evenodd"
viewBox="0 0 21000 14800"
 xmlns:xlink="http://www.w3.org/1999/xlink"
 xmlns:xodm="http://www.corel.com/coreldraw/odm/2003">
 <defs>
  <style type="text/css">
   <![CDATA[
    .fil0 {fill:#FEFEFE;fill-rule:nonzero;fill-opacity:0.501961}
    .fil1 {fill:#89CFE4;fill-rule:nonzero;fill-opacity:0.501961}
   ]]>
  </style>
 </defs>
 <g id="Слой_x0020_1">
  <metadata id="CorelCorpID_0Corel-Layer"/>
  <g id="_1836265082336">
   <polygon class="fil0" points="8579.83,3847.42 9527.76,3847.42 9491.37,3542.32 9450.78,3202.13 8584.24,3202.13 8527.88,3680.22 "/>
   <polygon class="fil1" points="8579.83,3847.42 9527.76,3847.42 9450.78,3202.13 8584.24,3202.13 8527.88,3680.22 "/>
   <polygon class="fil1" points="8579.83,3847.42 9527.76,3847.42 9489.27,3524.78 8546.21,3524.78 8527.88,3680.22 "/>
   <polygon class="fil1" points="9450.78,3847.42 9527.76,3847.42 9450.78,3202.13 9320.89,3202.13 "/>
   <polygon class="fil1" points="9450.78,3847.42 9527.76,3847.42 9489.27,3524.78 9385.84,3524.78 "/>
   <polygon class="fil0" points="8579.83,3847.42 9527.76,3847.42 9504.65,3653.7 8557.39,3420.27 8527.56,3679.17 "/>
  </g>
 </g>
</svg>
