<?xml version="1.0" encoding="UTF-8"?>
<!DOCTYPE svg PUBLIC "-//W3C//DTD SVG 1.1//EN" "http://www.w3.org/Graphics/SVG/1.1/DTD/svg11.dtd">
<!-- Creator: CorelDRAW 2020 (64-Bit) -->
<svg xmlns="http://www.w3.org/2000/svg" xml:space="preserve" width="210mm" height="148mm" version="1.1" style="shape-rendering:geometricPrecision; text-rendering:geometricPrecision; image-rendering:optimizeQuality; fill-rule:evenodd; clip-rule:evenodd"
viewBox="0 0 21000 14800"
 xmlns:xlink="http://www.w3.org/1999/xlink"
 xmlns:xodm="http://www.corel.com/coreldraw/odm/2003">
 <defs>
  <style type="text/css">
   <![CDATA[
    .fil0 {fill:#FEFEFE;fill-rule:nonzero;fill-opacity:0.501961}
    .fil1 {fill:#89CFE4;fill-rule:nonzero;fill-opacity:0.501961}
   ]]>
  </style>
 </defs>
 <g id="Слой_x0020_1">
  <metadata id="CorelCorpID_0Corel-Layer"/>
  <g id="_1836419123008">
   <polygon class="fil0" points="16070.62,3874.6 17028.09,3874.6 17106.77,3874.6 17126.16,3555.31 17126.15,3555.31 17134.87,3411.76 17068.23,3232.36 16157.3,3236.01 "/>
   <polygon class="fil1" points="16070.62,3874.6 17106.77,3874.6 17134.81,3411.32 17068.23,3232.36 16157.3,3236.01 "/>
   <polygon class="fil1" points="16070.62,3874.6 17106.77,3874.6 17106.77,3555.31 16113.97,3555.31 "/>
   <polygon class="fil0" points="16120.82,3504.79 17129.22,3504.79 17134.81,3411.32 17104.73,3331.76 17068.23,3232.36 16156.81,3240.33 "/>
   <polygon class="fil1" points="17028.09,3874.6 17106.77,3874.6 17134.84,3412.3 17068.94,3236.01 16944.4,3236.01 "/>
   <polygon class="fil1" points="17028.09,3874.6 17106.77,3874.6 17126.16,3555.31 16930.51,3555.31 "/>
  </g>
 </g>
</svg>
