<?xml version="1.0" encoding="UTF-8"?>
<!DOCTYPE svg PUBLIC "-//W3C//DTD SVG 1.1//EN" "http://www.w3.org/Graphics/SVG/1.1/DTD/svg11.dtd">
<!-- Creator: CorelDRAW 2020 (64-Bit) -->
<svg xmlns="http://www.w3.org/2000/svg" xml:space="preserve" width="210mm" height="148mm" version="1.1" style="shape-rendering:geometricPrecision; text-rendering:geometricPrecision; image-rendering:optimizeQuality; fill-rule:evenodd; clip-rule:evenodd"
viewBox="0 0 21000 14800"
 xmlns:xlink="http://www.w3.org/1999/xlink"
 xmlns:xodm="http://www.corel.com/coreldraw/odm/2003">
 <defs>
  <style type="text/css">
   <![CDATA[
    .fil1 {fill:#FEFEFE;fill-rule:nonzero;fill-opacity:0.501961}
    .fil0 {fill:#89CFE4;fill-rule:nonzero;fill-opacity:0.501961}
   ]]>
  </style>
 </defs>
 <g id="Слой_x0020_1">
  <metadata id="CorelCorpID_0Corel-Layer"/>
  <g id="_1836262405536">
   <polygon class="fil0" points="9958.93,3876.13 10942.83,3876.13 11023.18,3876.13 11023.18,3382.1 10923.72,3230.83 10805.98,3230.83 10063.75,3230.83 10011.34,3553.48 "/>
   <polygon class="fil0" points="9958.93,3876.13 11023.18,3876.13 11023.18,3382.1 10923.36,3230.83 10063.75,3230.83 "/>
   <polygon class="fil0" points="9958.93,3876.13 11023.18,3876.13 11023.18,3553.48 10011.34,3553.48 "/>
   <polygon class="fil0" points="10942.83,3876.13 11023.18,3876.13 11023.18,3553.48 10341.06,3553.48 "/>
   <polygon class="fil1" points="9978.19,3757.52 11023.18,3717.19 11023.18,3528.95 10063.75,3230.83 "/>
   <polygon class="fil0" points="10942.83,3876.13 11023.18,3876.13 11023.18,3380.7 10922.59,3230.83 10805.98,3230.83 "/>
  </g>
 </g>
</svg>
