<?xml version="1.0" encoding="UTF-8"?>
<!DOCTYPE svg PUBLIC "-//W3C//DTD SVG 1.1//EN" "http://www.w3.org/Graphics/SVG/1.1/DTD/svg11.dtd">
<!-- Creator: CorelDRAW 2020 (64-Bit) -->
<svg xmlns="http://www.w3.org/2000/svg" xml:space="preserve" width="210mm" height="148mm" version="1.1" style="shape-rendering:geometricPrecision; text-rendering:geometricPrecision; image-rendering:optimizeQuality; fill-rule:evenodd; clip-rule:evenodd"
viewBox="0 0 21000 14800"
 xmlns:xlink="http://www.w3.org/1999/xlink"
 xmlns:xodm="http://www.corel.com/coreldraw/odm/2003">
 <defs>
  <style type="text/css">
   <![CDATA[
    .fil0 {fill:#FEFEFE;fill-rule:nonzero;fill-opacity:0.501961}
    .fil1 {fill:#89CFE4;fill-rule:nonzero;fill-opacity:0.501961}
   ]]>
  </style>
 </defs>
 <g id="Слой_x0020_1">
  <metadata id="CorelCorpID_0Corel-Layer"/>
  <g id="_1836264411600">
   <path class="fil0" d="M5597.75 3875.34c282.22,0 564.44,0 846.66,0l18.23 -552.27 -66.51 -91.45 -784.63 80.05 -35.53 46.9 21.78 516.77z"/>
   <polygon class="fil1" points="5597.75,3875.34 6444.41,3875.34 6462.64,3323.07 6396.13,3231.72 5611.49,3311.67 5575.97,3358.57 "/>
   <polygon class="fil1" points="5597.75,3875.34 6444.41,3875.34 6456.53,3552.7 5582.73,3563.49 "/>
   <polygon class="fil0" points="5597.75,3875.34 6444.41,3875.34 6462.64,3323.07 5575.97,3358.57 "/>
   <polygon class="fil1" points="6349.77,3875.34 6444.41,3875.34 6462.64,3323.07 6396.13,3231.62 6194.01,3252.32 "/>
   <polygon class="fil1" points="5597.75,3875.34 5672.03,3875.34 5910.61,3281.16 5611.5,3311.67 5575.97,3358.57 "/>
  </g>
 </g>
</svg>
