<?xml version="1.0" encoding="UTF-8"?>
<!DOCTYPE svg PUBLIC "-//W3C//DTD SVG 1.1//EN" "http://www.w3.org/Graphics/SVG/1.1/DTD/svg11.dtd">
<!-- Creator: CorelDRAW 2020 (64-Bit) -->
<svg xmlns="http://www.w3.org/2000/svg" xml:space="preserve" width="210mm" height="148mm" version="1.1" style="shape-rendering:geometricPrecision; text-rendering:geometricPrecision; image-rendering:optimizeQuality; fill-rule:evenodd; clip-rule:evenodd"
viewBox="0 0 21000 14800"
 xmlns:xlink="http://www.w3.org/1999/xlink"
 xmlns:xodm="http://www.corel.com/coreldraw/odm/2003">
 <defs>
  <style type="text/css">
   <![CDATA[
    .fil0 {fill:#FEFEFE;fill-rule:nonzero;fill-opacity:0.501961}
    .fil1 {fill:#89CFE4;fill-rule:nonzero;fill-opacity:0.501961}
   ]]>
  </style>
 </defs>
 <g id="Слой_x0020_1">
  <metadata id="CorelCorpID_0Corel-Layer"/>
  <polygon class="fil0" points="3582.29,7480.21 5830.01,7480.21 5743.72,7175.11 5647.47,6834.92 3592.75,6834.92 3459.11,7313.01 "/>
  <polygon class="fil1" points="3582.29,7480.21 5830.01,7480.21 5647.47,6834.92 3592.75,6834.92 3459.11,7313.01 "/>
  <polygon class="fil1" points="3582.29,7480.21 5830.01,7480.21 5738.75,7157.57 3502.56,7157.57 3459.11,7313.01 "/>
  <polygon class="fil1" points="5647.47,7480.21 5830.01,7480.21 5647.47,6834.92 5339.49,6834.92 "/>
  <polygon class="fil1" points="5647.47,7480.21 5830.01,7480.21 5738.75,7157.57 5493.49,7157.57 "/>
  <polygon class="fil0" points="3582.29,7480.21 5830.01,7480.21 5775.22,7286.49 3529.09,7053.06 3458.34,7311.96 "/>
 </g>
</svg>
