<?xml version="1.0" encoding="UTF-8"?>
<!DOCTYPE svg PUBLIC "-//W3C//DTD SVG 1.1//EN" "http://www.w3.org/Graphics/SVG/1.1/DTD/svg11.dtd">
<!-- Creator: CorelDRAW 2020 (64-Bit) -->
<svg xmlns="http://www.w3.org/2000/svg" xml:space="preserve" width="210mm" height="148mm" version="1.1" style="shape-rendering:geometricPrecision; text-rendering:geometricPrecision; image-rendering:optimizeQuality; fill-rule:evenodd; clip-rule:evenodd"
viewBox="0 0 21000 14800"
 xmlns:xlink="http://www.w3.org/1999/xlink"
 xmlns:xodm="http://www.corel.com/coreldraw/odm/2003">
 <defs>
  <style type="text/css">
   <![CDATA[
    .fil1 {fill:#FEFEFE;fill-rule:nonzero;fill-opacity:0.501961}
    .fil0 {fill:#89CFE4;fill-rule:nonzero;fill-opacity:0.501961}
   ]]>
  </style>
 </defs>
 <g id="Слой_x0020_1">
  <metadata id="CorelCorpID_0Corel-Layer"/>
  <polygon class="fil0" points="3412.36,8343.77 5647.47,8343.77 5830.01,8343.77 5830.01,7849.74 5604.06,7698.47 5336.59,7698.47 3650.48,7698.47 3531.42,8021.12 "/>
  <polygon class="fil0" points="3412.36,8343.77 5830.01,8343.77 5830.01,7849.74 5603.25,7698.47 3650.48,7698.47 "/>
  <polygon class="fil0" points="3412.36,8343.77 5830.01,8343.77 5830.01,8021.12 3531.42,8021.12 "/>
  <polygon class="fil0" points="5647.47,8343.77 5830.01,8343.77 5830.01,8021.12 4280.45,8021.12 "/>
  <polygon class="fil1" points="3456.13,8225.16 5830.01,8184.83 5830.01,7996.59 3650.49,7698.47 "/>
  <polygon class="fil0" points="5647.47,8343.77 5830.01,8343.77 5830.01,7848.34 5601.5,7698.47 5336.59,7698.47 "/>
 </g>
</svg>
