<?xml version="1.0" encoding="UTF-8"?>
<!DOCTYPE svg PUBLIC "-//W3C//DTD SVG 1.1//EN" "http://www.w3.org/Graphics/SVG/1.1/DTD/svg11.dtd">
<!-- Creator: CorelDRAW 2020 (64-Bit) -->
<svg xmlns="http://www.w3.org/2000/svg" xml:space="preserve" width="210mm" height="148mm" version="1.1" style="shape-rendering:geometricPrecision; text-rendering:geometricPrecision; image-rendering:optimizeQuality; fill-rule:evenodd; clip-rule:evenodd"
viewBox="0 0 21000 14800"
 xmlns:xlink="http://www.w3.org/1999/xlink"
 xmlns:xodm="http://www.corel.com/coreldraw/odm/2003">
 <defs>
  <style type="text/css">
   <![CDATA[
    .fil0 {fill:#FEFEFE;fill-rule:nonzero;fill-opacity:0.501961}
    .fil1 {fill:#89CFE4;fill-rule:nonzero;fill-opacity:0.501961}
   ]]>
  </style>
 </defs>
 <g id="Слой_x0020_1">
  <metadata id="CorelCorpID_0Corel-Layer"/>
  <path class="fil0" d="M3481.7 5753.12c747.79,0 1495.58,0 2243.37,0l48.29 -552.27 -176.24 -91.45 -2079 80.05 -94.13 46.9 57.71 516.77z"/>
  <polygon class="fil1" points="3481.7,5753.12 5725.07,5753.12 5773.36,5200.85 5597.12,5109.5 3518.12,5189.45 3423.99,5236.35 "/>
  <polygon class="fil1" points="3481.7,5753.12 5725.07,5753.12 5757.16,5430.48 3441.91,5441.27 "/>
  <polygon class="fil0" points="3481.7,5753.12 5725.07,5753.12 5773.36,5200.85 3423.99,5236.35 "/>
  <polygon class="fil1" points="5474.3,5753.12 5725.07,5753.12 5773.36,5200.85 5597.12,5109.4 5061.58,5130.1 "/>
  <polygon class="fil1" points="3481.7,5753.12 3678.51,5753.12 4310.66,5158.94 3518.12,5189.45 3423.99,5236.35 "/>
 </g>
</svg>
